<svg width="33" height="33" viewBox="0 0 33 33" fill="none" xmlns="http://www.w3.org/2000/svg">
<path opacity="0.1" fill-rule="evenodd" clip-rule="evenodd" d="M0.316895 16.5854C0.316895 7.74889 7.48034 0.585449 16.3169 0.585449C25.1535 0.585449 32.3169 7.74889 32.3169 16.5854C32.3169 25.422 25.1535 32.5854 16.3169 32.5854C7.48034 32.5854 0.316895 25.422 0.316895 16.5854Z" fill="#333333"/>
<path d="M17.9886 19.0523L19.1086 17.9773C19.2594 17.8343 19.4503 17.7364 19.658 17.6955C19.8656 17.6547 20.0812 17.6725 20.2786 17.747L21.6436 18.2701C21.843 18.3477 22.0139 18.4803 22.1349 18.6511C22.256 18.822 22.3216 19.0233 22.3236 19.2299V21.6294C22.3224 21.7699 22.2916 21.9087 22.2331 22.0375C22.1746 22.1663 22.0895 22.2824 21.983 22.3788C21.8765 22.4752 21.7507 22.5499 21.6133 22.5985C21.476 22.647 21.3298 22.6683 21.1836 22.6612C11.6186 22.0901 9.68855 14.3156 9.32355 11.3402C9.30661 11.1941 9.32209 11.0462 9.36898 10.9062C9.41586 10.7663 9.49309 10.6374 9.59559 10.5282C9.69808 10.4189 9.82351 10.3317 9.96363 10.2723C10.1038 10.2129 10.2554 10.1827 10.4086 10.1836H12.8236C13.0391 10.1842 13.2494 10.2467 13.4277 10.363C13.6059 10.4793 13.7437 10.6442 13.8236 10.8363L14.3686 12.1464C14.4487 12.3351 14.4691 12.5422 14.4273 12.7419C14.3855 12.9416 14.2834 13.1251 14.1336 13.2694L13.0136 14.3444C13.0136 14.3444 13.6586 18.534 17.9886 19.0523Z" fill="black"/>
</svg>
