<svg width="33" height="36" viewBox="0 0 33 36" fill="none" xmlns="http://www.w3.org/2000/svg">
<path opacity="0.1" fill-rule="evenodd" clip-rule="evenodd" d="M0.0371094 16.8486C0.0371094 8.01208 7.20055 0.848633 16.0371 0.848633C24.8737 0.848633 32.0371 8.01208 32.0371 16.8486C32.0371 25.6852 24.8737 32.8486 16.0371 32.8486C7.20055 32.8486 0.0371094 25.6852 0.0371094 16.8486Z" fill="#333333"/>
<path d="M21.6496 11.6313H9.58693C8.75763 11.6313 8.08664 12.3592 8.08664 13.2488L8.0791 22.9532C8.0791 23.8428 8.75763 24.5706 9.58693 24.5706H21.6496C22.4789 24.5706 23.1574 23.8428 23.1574 22.9532V13.2488C23.1574 12.3592 22.4789 11.6313 21.6496 11.6313ZM21.348 15.0683L16.0178 18.6428C15.7766 18.8045 15.4599 18.8045 15.2187 18.6428L9.8885 15.0683C9.70002 14.9389 9.58693 14.7206 9.58693 14.4861C9.58693 13.9442 10.1373 13.6208 10.567 13.9038L15.6183 17.2923L20.6695 13.9038C21.0992 13.6208 21.6496 13.9442 21.6496 14.4861C21.6496 14.7206 21.5365 14.9389 21.348 15.0683Z" fill="#333333"/>
</svg>
