<svg width="33" height="33" viewBox="0 0 33 33" fill="none" xmlns="http://www.w3.org/2000/svg">
<path opacity="0.1" fill-rule="evenodd" clip-rule="evenodd" d="M0.141113 16.8191C0.141113 7.98254 7.30456 0.819092 16.1411 0.819092C24.9777 0.819092 32.1411 7.98254 32.1411 16.8191C32.1411 25.6556 24.9777 32.8191 16.1411 32.8191C7.30456 32.8191 0.141113 25.6556 0.141113 16.8191Z" fill="#333333"/>
<path fill-rule="evenodd" clip-rule="evenodd" d="M16.142 8.28564C13.8245 8.28564 13.5337 8.29578 12.6234 8.3372C11.715 8.3788 11.0949 8.52262 10.5523 8.73365C9.99105 8.95161 9.51495 9.24317 9.04064 9.71766C8.56596 10.192 8.27441 10.6681 8.05574 11.2291C7.84418 11.7719 7.70018 12.3922 7.65929 13.3003C7.61858 14.2105 7.60791 14.5015 7.60791 16.8191C7.60791 19.1366 7.61822 19.4266 7.65947 20.3368C7.70124 21.2452 7.84507 21.8653 8.05591 22.4079C8.27405 22.9692 8.56561 23.4453 9.0401 23.9196C9.51424 24.3943 9.99033 24.6865 10.5512 24.9045C11.0942 25.1155 11.7144 25.2593 12.6227 25.3009C13.5329 25.3424 13.8236 25.3525 16.141 25.3525C18.4587 25.3525 18.7486 25.3424 19.6589 25.3009C20.5673 25.2593 21.1881 25.1155 21.7311 24.9045C22.2922 24.6865 22.7675 24.3943 23.2417 23.9196C23.7163 23.4453 24.0079 22.9692 24.2266 22.4081C24.4364 21.8653 24.5804 21.2451 24.623 20.337C24.6639 19.4267 24.6746 19.1366 24.6746 16.8191C24.6746 14.5015 24.6639 14.2107 24.623 13.3005C24.5804 12.392 24.4364 11.7719 24.2266 11.2293C24.0079 10.6681 23.7163 10.192 23.2417 9.71766C22.767 9.24299 22.2923 8.95143 21.7305 8.73365C21.1865 8.52262 20.5661 8.3788 19.6576 8.3372C18.7474 8.29578 18.4576 8.28564 16.1394 8.28564H16.142ZM15.3765 9.82341C15.6037 9.82306 15.8572 9.82341 16.142 9.82341C18.4204 9.82341 18.6905 9.83159 19.5902 9.87248C20.4222 9.91053 20.8738 10.0495 21.1746 10.1664C21.5728 10.321 21.8567 10.5059 22.1552 10.8046C22.4539 11.1032 22.6388 11.3877 22.7938 11.7859C22.9106 12.0864 23.0498 12.5379 23.0877 13.3699C23.1286 14.2695 23.1375 14.5397 23.1375 16.8171C23.1375 19.0944 23.1286 19.3647 23.0877 20.2642C23.0496 21.0962 22.9106 21.5478 22.7938 21.8482C22.6391 22.2465 22.4539 22.53 22.1552 22.8285C21.8566 23.1272 21.573 23.3121 21.1746 23.4668C20.8741 23.5841 20.4222 23.7228 19.5902 23.7608C18.6907 23.8017 18.4204 23.8106 16.142 23.8106C13.8634 23.8106 13.5934 23.8017 12.6938 23.7608C11.8618 23.7224 11.4102 23.5834 11.1092 23.4666C10.711 23.3119 10.4266 23.127 10.1279 22.8283C9.82923 22.5297 9.64434 22.2459 9.48932 21.8475C9.37251 21.5471 9.23331 21.0955 9.19545 20.2635C9.15456 19.364 9.14638 19.0937 9.14638 16.815C9.14638 14.5362 9.15456 14.2674 9.19545 13.3678C9.23349 12.5358 9.37251 12.0842 9.48932 11.7834C9.64398 11.3852 9.82923 11.1008 10.1279 10.8021C10.4266 10.5034 10.711 10.3185 11.1092 10.1635C11.41 10.0462 11.8618 9.9075 12.6938 9.86928C13.481 9.83373 13.7861 9.82306 15.3765 9.82128V9.82341ZM20.6971 11.2403C20.1317 11.2403 19.6731 11.6985 19.6731 12.264C19.6731 12.8293 20.1317 13.288 20.6971 13.288C21.2624 13.288 21.7211 12.8293 21.7211 12.264C21.7211 11.6986 21.2624 11.2403 20.6971 11.2403ZM16.1421 12.4368C13.7219 12.4368 11.7598 14.3989 11.7598 16.819C11.7598 19.2392 13.7219 21.2004 16.1421 21.2004C18.5622 21.2004 20.5236 19.2392 20.5236 16.819C20.5236 14.3989 18.5622 12.4368 16.1421 12.4368ZM16.142 13.9746C17.7129 13.9746 18.9865 15.248 18.9865 16.819C18.9865 18.3899 17.7129 19.6635 16.142 19.6635C14.571 19.6635 13.2976 18.3899 13.2976 16.819C13.2976 15.248 14.571 13.9746 16.142 13.9746Z" fill="#333333"/>
</svg>
