<svg width="124" height="100" viewBox="0 0 124 100" fill="none" xmlns="http://www.w3.org/2000/svg">
<path fill-rule="evenodd" clip-rule="evenodd" d="M119.999 16.0878C108.299 -1.08205 94.835 -4.50839 79.608 5.80877C56.7674 21.2845 78.8266 55.417 43.8292 50.8217C8.83178 46.2263 6.36755 108.595 36.4133 98.9934C66.459 89.3914 60.0625 64.3746 90.7086 86.5429C111.139 101.322 121.93 102.254 123.082 89.3396L119.999 16.0878Z" fill="#3BC1C3" fill-opacity="0.0525295"/>
<path fill-rule="evenodd" clip-rule="evenodd" d="M59.7562 47.0287C60.937 46.0483 61.6875 44.5777 61.6875 42.934C61.6875 39.9827 59.2673 37.5899 56.282 37.5899C53.2967 37.5899 50.8765 39.9827 50.8765 42.934C50.8765 45.3494 52.4972 47.3903 54.7217 48.0521L54.7672 45.0746L55.0019 41.4854L55.4094 40.4499L56.1043 40.0242L56.8751 39.8517L57.5068 39.919L58.0939 40.1863L58.7232 40.6727L59.2053 41.608L59.305 42.8209L59.4349 45.2249L59.7562 47.0287Z" fill="#E74C3C"/>
<mask id="mask0" mask-type="alpha" maskUnits="userSpaceOnUse" x="0" y="2" width="113" height="91">
<path d="M0 92.0505H112.055V2.15054H0V92.0505Z" fill="white"/>
</mask>
<g mask="url(#mask0)">
<path fill-rule="evenodd" clip-rule="evenodd" d="M25.1392 28.373H33.7805V27.8085H25.1392V28.373Z" fill="#333333"/>
<path fill-rule="evenodd" clip-rule="evenodd" d="M34.5122 28.373H35.9834V27.8085H34.5122V28.373Z" fill="#333333"/>
<path fill-rule="evenodd" clip-rule="evenodd" d="M21.021 30.4894H22.4923V29.9249H21.021V30.4894Z" fill="#333333"/>
<path fill-rule="evenodd" clip-rule="evenodd" d="M23.2378 30.4894H31.879V29.9249H23.2378V30.4894Z" fill="#333333"/>
<path fill-rule="evenodd" clip-rule="evenodd" d="M100.365 26.7907H109.006V26.2262H100.365V26.7907Z" fill="#333333"/>
<path fill-rule="evenodd" clip-rule="evenodd" d="M109.738 26.7907H111.21V26.2262H109.738V26.7907Z" fill="#333333"/>
<path fill-rule="evenodd" clip-rule="evenodd" d="M96.2471 28.907H97.7184V28.3425H96.2471V28.907Z" fill="#333333"/>
<path fill-rule="evenodd" clip-rule="evenodd" d="M98.4634 28.907H107.105V28.3425H98.4634V28.907Z" fill="#333333"/>
<path fill-rule="evenodd" clip-rule="evenodd" d="M10.8962 65.4896H30.6148V56.7238C30.6148 56.6189 30.6737 56.5225 30.7678 56.4737L33.5415 55.0369L30.7743 53.6922C30.6767 53.6448 30.6148 53.5466 30.6148 53.439V51.6588H10.8962V65.4896ZM30.9003 66.0541H10.6107C10.453 66.0541 10.3252 65.9278 10.3252 65.7719V51.3766C10.3252 51.2207 10.453 51.0943 10.6107 51.0943H30.9003C31.058 51.0943 31.1858 51.2207 31.1858 51.3766V53.2632L34.298 54.7755C34.3945 54.8225 34.4562 54.9189 34.4576 55.0252C34.459 55.1315 34.3998 55.2295 34.3047 55.2789L31.1858 56.8946V65.7719C31.1858 65.9278 31.058 66.0541 30.9003 66.0541Z" fill="#333333"/>
<path fill-rule="evenodd" clip-rule="evenodd" d="M12.3354 64.2774H29.231V52.8711H12.3354V64.2774Z" fill="#3BC1C3"/>
<path fill-rule="evenodd" clip-rule="evenodd" d="M14.7515 55.6542H24.2025V55.0897H14.7515V55.6542Z" fill="#333333"/>
<path fill-rule="evenodd" clip-rule="evenodd" d="M25.0034 55.6542H26.6127V55.0897H25.0034V55.6542Z" fill="#333333"/>
<path fill-rule="evenodd" clip-rule="evenodd" d="M14.7515 61.9208H24.2025V61.3563H14.7515V61.9208Z" fill="#333333"/>
<path fill-rule="evenodd" clip-rule="evenodd" d="M25.0034 61.9208H26.6127V61.3563H25.0034V61.9208Z" fill="#333333"/>
<path fill-rule="evenodd" clip-rule="evenodd" d="M14.7515 59.8318H24.2025V59.2673H14.7515V59.8318Z" fill="#333333"/>
<path fill-rule="evenodd" clip-rule="evenodd" d="M25.0034 59.8318H26.6127V59.2673H25.0034V59.8318Z" fill="#333333"/>
<path fill-rule="evenodd" clip-rule="evenodd" d="M17.1616 57.7431H26.6126V57.1786H17.1616V57.7431Z" fill="#333333"/>
<path fill-rule="evenodd" clip-rule="evenodd" d="M14.7515 57.7431H16.3608V57.1786H14.7515V57.7431Z" fill="#333333"/>
<path fill-rule="evenodd" clip-rule="evenodd" d="M49.5513 68.0019H39.7609C38.9879 68.0019 38.3589 67.2782 38.3589 66.3887V12.0193C38.3589 11.1296 38.9879 10.4058 39.7609 10.4058H72.803C73.5761 10.4058 74.205 11.1296 74.205 12.0193V58.5358H73.634V12.0193C73.634 11.4409 73.2612 10.9703 72.803 10.9703H39.7609C39.3026 10.9703 38.9299 11.4409 38.9299 12.0193V66.3887C38.9299 66.967 39.3026 67.4374 39.7609 67.4374H49.5513V68.0019Z" fill="#333333"/>
<path fill-rule="evenodd" clip-rule="evenodd" d="M49.5997 61.0422H40.5555C40.3978 61.0422 40.27 60.9158 40.27 60.7599V17.5277C40.27 17.3718 40.3978 17.2454 40.5555 17.2454H72.0085C72.1661 17.2454 72.294 17.3718 72.294 17.5277V59.0376H71.723V17.8099H40.841V60.4777H49.5997V61.0422Z" fill="#333333"/>
<path fill-rule="evenodd" clip-rule="evenodd" d="M53.2767 13.5811C53.2237 13.5811 53.1647 13.6481 53.1647 13.7442V14.523C53.1647 14.619 53.2237 14.6858 53.2767 14.6858H59.2871C59.34 14.6858 59.3989 14.619 59.3989 14.523V13.7442C59.3989 13.6481 59.34 13.5811 59.2871 13.5811H53.2767ZM59.2871 15.2503H53.2767C52.9 15.2503 52.5938 14.924 52.5938 14.523V13.7442C52.5938 13.343 52.9 13.0166 53.2767 13.0166H59.2871C59.6636 13.0166 59.9699 13.343 59.9699 13.7442V14.523C59.9699 14.924 59.6636 15.2503 59.2871 15.2503Z" fill="#333333"/>
<path fill-rule="evenodd" clip-rule="evenodd" d="M38.6234 33.6513H18.3687C18.3209 33.6496 14.688 33.457 14.688 28.9168V21.4529H15.259V28.9168C15.259 32.8594 18.1892 33.0771 18.3756 33.0868H38.6234V33.6513Z" fill="#333333"/>
<path fill-rule="evenodd" clip-rule="evenodd" d="M12.9991 20.2947C12.8255 20.2947 12.632 20.5283 12.632 20.8635C12.632 21.1988 12.8255 21.4324 12.9991 21.4324H17.0851C17.2588 21.4324 17.4523 21.1988 17.4523 20.8635C17.4523 20.5283 17.2588 20.2947 17.0851 20.2947H12.9991ZM17.0851 21.997H12.9991C12.4819 21.997 12.061 21.4886 12.061 20.8635C12.061 20.2386 12.4819 19.7302 12.9991 19.7302H17.0851C17.6024 19.7302 18.0233 20.2386 18.0233 20.8635C18.0233 21.4886 17.6024 21.997 17.0851 21.997Z" fill="#333333"/>
<path fill-rule="evenodd" clip-rule="evenodd" d="M18.6587 19.3577C18.6587 19.7191 18.362 20.0125 17.9965 20.0125H12.0879C11.7222 20.0125 11.4258 19.7191 11.4258 19.3577V13.727C11.4258 13.3654 11.7222 13.0723 12.0879 13.0723H17.9965C18.362 13.0723 18.6587 13.3654 18.6587 13.727V19.3577Z" fill="#3BC1C3"/>
<path fill-rule="evenodd" clip-rule="evenodd" d="M12.0878 13.3546C11.8801 13.3546 11.7111 13.5217 11.7111 13.727V19.3577C11.7111 19.5631 11.8801 19.7302 12.0878 19.7302H17.9963C18.2041 19.7302 18.3731 19.5631 18.3731 19.3577V13.727C18.3731 13.5217 18.2041 13.3546 17.9963 13.3546H12.0878ZM17.9963 20.2947H12.0878C11.5652 20.2947 11.1401 19.8744 11.1401 19.3577V13.727C11.1401 13.2104 11.5652 12.79 12.0878 12.79H17.9963C18.5189 12.79 18.9441 13.2104 18.9441 13.727V19.3577C18.9441 19.8744 18.5189 20.2947 17.9963 20.2947Z" fill="#333333"/>
<path fill-rule="evenodd" clip-rule="evenodd" d="M14.2817 13.0723H13.7107V9.53662C13.7107 9.33125 13.5417 9.16416 13.334 9.16416H13.307C13.0993 9.16416 12.9304 9.33125 12.9304 9.53662V13.0723H12.3594V9.53662C12.3594 9.01987 12.7844 8.59964 13.307 8.59964H13.334C13.8565 8.59964 14.2817 9.01987 14.2817 9.53662V13.0723Z" fill="#333333"/>
<path fill-rule="evenodd" clip-rule="evenodd" d="M17.593 13.0723H17.022V9.53662C17.022 9.33125 16.8529 9.16416 16.6451 9.16416H16.6183C16.4105 9.16416 16.2414 9.33125 16.2414 9.53662V13.0723H15.6704V9.53662C15.6704 9.01987 16.0956 8.59964 16.6183 8.59964H16.6451C17.1678 8.59964 17.593 9.01987 17.593 9.53662V13.0723Z" fill="#333333"/>
<path fill-rule="evenodd" clip-rule="evenodd" d="M54.1874 70.3655L54.106 69.8067C54.6223 69.7331 54.7203 69.1721 54.7342 69.0672L54.4595 62.8597C54.4593 62.855 54.4593 62.8503 54.4593 62.8455L54.5895 42.4348C54.5895 40.7326 55.5227 39.6314 56.9673 39.6314C58.4552 39.6314 59.4951 40.7813 59.4982 42.4289L60.5695 62.2036C60.5698 62.2076 60.5699 62.2116 60.57 62.2157C60.5701 62.2234 60.6048 63.0427 60.9697 63.0427C61.1403 63.0427 61.212 62.9823 61.251 62.9369C61.4087 62.7539 61.3824 62.3594 61.3668 62.2638C61.3657 62.2575 61.365 62.2513 61.3644 62.245L60.9048 57.3977C60.904 57.3888 60.9036 57.3801 60.9036 57.3713C60.9036 55.8509 62.2729 54.5664 63.8938 54.5664C65.455 54.5664 66.7257 55.8194 66.7312 57.3614L67.1897 64.0122L66.62 64.0504L66.1608 57.3905C66.1604 57.3841 66.1602 57.3778 66.1602 57.3713C66.1602 56.136 65.1434 55.1309 63.8938 55.1309C62.6096 55.1309 61.4827 56.1703 61.4746 57.3586L61.932 62.1838C61.9487 62.2937 62.0236 62.9105 61.6858 63.3028C61.5663 63.4417 61.3451 63.6072 60.9697 63.6072C60.218 63.6072 60.0061 62.7433 59.9991 62.228L58.9277 42.4517C58.9273 42.4466 58.9272 42.4417 58.9272 42.4366C58.9272 41.3212 58.3212 40.1959 56.9673 40.1959C55.2907 40.1959 55.1605 41.911 55.1605 42.4366L55.0303 62.842L55.3056 69.0646C55.3061 69.0768 55.3058 69.0889 55.3048 69.1011C55.2711 69.4881 54.9943 70.2504 54.1874 70.3655Z" fill="#333333"/>
<path fill-rule="evenodd" clip-rule="evenodd" d="M71.7236 65.4625L71.2644 58.5538C71.264 58.5476 71.2637 58.5414 71.2637 58.5353C71.2637 57.3 70.2469 56.2952 68.9972 56.2952C67.7515 56.2952 66.7374 57.2939 66.7312 58.5239L67.1894 64.008L66.6204 64.0546L66.1612 58.5585C66.1605 58.5507 66.1602 58.543 66.1602 58.5353C66.1602 56.9887 67.4329 55.7307 68.9972 55.7307C70.5585 55.7307 71.8295 56.9836 71.8347 58.5258L72.2932 65.4254L71.7236 65.4625Z" fill="#333333"/>
<path fill-rule="evenodd" clip-rule="evenodd" d="M56.7639 92.0505L56.194 92.0142L56.4164 88.6025L56.4866 86.2073C53.9404 84.2797 49.7554 77.9164 49.5134 76.8473C49.0091 74.6165 49.0814 67.248 49.2892 62.9706C49.3332 62.062 49.226 61.1463 49.1316 60.3386C48.984 59.0779 48.8674 58.0823 49.3931 57.6172C49.6668 57.3748 50.063 57.3169 50.604 57.4396C52.8843 57.9574 54.0536 60.5789 54.1022 60.6902C54.5701 61.792 54.8938 62.6162 55.0657 63.1427L54.5223 63.316C54.3555 62.8049 54.0373 61.9958 53.5769 60.9114C53.5673 60.8897 52.4725 58.4431 50.4761 57.9898C50.1339 57.9123 49.8977 57.9282 49.7739 58.0377C49.4687 58.3079 49.5804 59.2627 49.6987 60.2737C49.7957 61.103 49.9058 62.0429 49.8595 62.9977C49.6532 67.2445 49.5779 74.544 50.0707 76.7241C50.3013 77.7433 54.562 84.1372 56.9436 85.8401C57.0202 85.8948 57.0645 85.9836 57.0617 86.0769L56.9867 88.6288L56.7639 92.0505Z" fill="#333333"/>
<path fill-rule="evenodd" clip-rule="evenodd" d="M73.5376 92.033L72.9666 92.0317L72.982 85.924C72.9821 85.8793 72.9929 85.8353 73.0135 85.7957C73.1647 85.5048 73.4315 85.125 73.7404 84.6855C74.4059 83.7386 75.3171 82.4419 75.7298 81.0965C76.3178 79.1808 76.8011 69.1904 76.8254 68.6795L76.3692 63.8219C75.7916 60.7108 75.0075 59.0251 74.0386 58.8113C74.0324 58.8099 74.0263 58.8084 74.0203 58.8066C73.4869 58.652 72.8717 58.7518 72.4535 59.0615C72.2113 59.2408 71.9228 59.5739 71.9196 60.1443L72.2932 65.4242L71.7234 65.4637L71.3493 60.1734C71.3489 60.1669 71.3486 60.1603 71.3486 60.1538C71.3486 59.522 71.6195 58.9736 72.1113 58.6096C72.6748 58.1926 73.4637 58.0599 74.1723 58.2625C75.8072 58.6335 76.5309 61.5609 76.9331 63.7324C76.9347 63.7406 76.9358 63.7488 76.9366 63.7572L77.3958 68.6469C77.3971 68.6599 77.3974 68.6731 77.3967 68.6861C77.3766 69.116 76.897 79.2373 76.2762 81.2603C75.8374 82.6908 74.8964 84.0299 74.2094 85.0075C73.934 85.3996 73.6931 85.7422 73.5528 85.9953L73.5376 92.033Z" fill="#333333"/>
<path fill-rule="evenodd" clip-rule="evenodd" d="M57.0806 41.3329C56.5131 41.3329 56.0515 41.7894 56.0515 42.3505V43.5421C56.0515 43.9156 56.2107 44.1052 57.0806 44.1052C57.9503 44.1052 58.1095 43.9156 58.1095 43.5421V42.3505C58.1095 41.7894 57.6479 41.3329 57.0806 41.3329ZM57.0806 44.5569C56.6359 44.5569 55.5947 44.5568 55.5947 43.5421V42.3505C55.5947 41.5404 56.2613 40.8813 57.0806 40.8813C57.8998 40.8813 58.5663 41.5404 58.5663 42.3505V43.5421C58.5663 44.5568 57.5252 44.5569 57.0806 44.5569Z" fill="#333333"/>
<path fill-rule="evenodd" clip-rule="evenodd" d="M49.7948 62.0618H51.3742C51.4227 61.5982 51.4845 60.3759 50.9245 59.5242C50.4578 58.8147 49.887 58.6772 49.5571 58.6648L49.7948 62.0618ZM51.5753 62.5134H49.5817C49.4617 62.5134 49.3621 62.4216 49.3539 62.3032L49.0855 58.4677C49.0776 58.3543 49.1561 58.2528 49.2688 58.2306C49.2784 58.2287 49.3667 58.2122 49.5048 58.2122C49.836 58.2122 50.6747 58.316 51.3074 59.2782C52.1061 60.4928 51.8133 62.2515 51.8004 62.3257C51.7816 62.4342 51.6865 62.5134 51.5753 62.5134Z" fill="#333333"/>
<path fill-rule="evenodd" clip-rule="evenodd" d="M54.5939 50.3174C54.3575 50.2573 54.1217 50.1834 53.8931 50.0981L54.095 49.5699C54.3042 49.6482 54.5199 49.7158 54.7362 49.7708L54.5939 50.3174Z" fill="#333333"/>
<path fill-rule="evenodd" clip-rule="evenodd" d="M54.6012 36.2L54.4666 35.6514C54.9439 35.537 55.4364 35.4678 55.9303 35.4457L55.956 36.0097C55.4987 36.0301 55.043 36.0941 54.6012 36.2ZM58.6514 36.4024C58.2218 36.2522 57.7749 36.1428 57.3233 36.0773L57.4063 35.5188C57.8943 35.5896 58.3772 35.7078 58.8417 35.8701L58.6514 36.4024ZM52.1276 37.3276L51.7933 36.8699C52.1934 36.5844 52.623 36.3362 53.0699 36.1323L53.3092 36.6449C52.8954 36.8335 52.4979 37.0633 52.1276 37.3276ZM60.9973 37.772C60.656 37.4722 60.2838 37.2041 59.8913 36.9747L60.1817 36.4887C60.6058 36.7363 61.0077 37.0262 61.3766 37.3499L60.9973 37.772ZM50.2627 39.2925L49.7793 38.9919C50.0416 38.5797 50.3456 38.1905 50.683 37.835L51.0994 38.2214C50.787 38.5505 50.5055 38.9109 50.2627 39.2925ZM62.6527 39.9121C62.4505 39.5086 62.2071 39.122 61.9296 38.7634L62.3831 38.4204C62.683 38.8079 62.9459 39.2254 63.1645 39.6615L62.6527 39.9121ZM49.2834 41.8051L48.721 41.7076C48.8062 41.2273 48.9392 40.7533 49.1165 40.2989L49.6492 40.5019C49.4853 40.9223 49.3623 41.3607 49.2834 41.8051ZM63.3689 42.51C63.3359 42.0593 63.2585 41.6107 63.1388 41.1766L63.6897 41.0282C63.8189 41.4975 63.9027 41.9823 63.9383 42.4691L63.3689 42.51ZM48.7739 44.6166C48.6715 44.142 48.6152 43.6535 48.6064 43.1644L49.1773 43.1544C49.1856 43.6072 49.2376 44.0597 49.3323 44.4991L48.7739 44.6166ZM63.5895 45.3592L63.0463 45.1859C63.1859 44.7573 63.2843 44.3126 63.3381 43.8639L63.9051 43.9305C63.8468 44.4153 63.7408 44.896 63.5895 45.3592ZM49.9312 47.2926C49.6535 46.8893 49.4146 46.4578 49.221 46.0104L49.7458 45.7884C49.9251 46.2025 50.1462 46.6017 50.4033 46.9751L49.9312 47.2926ZM62.1634 47.9056L61.7262 47.5424C62.02 47.1968 62.2809 46.8216 62.5019 46.4273L63.0013 46.7008C62.7626 47.1269 62.4808 47.5323 62.1634 47.9056ZM52.0211 49.3418C51.6116 49.0712 51.2264 48.76 50.8763 48.4167L51.2785 48.0158C51.6026 48.3338 51.9592 48.6219 52.3385 48.8725L52.0211 49.3418Z" fill="#333333"/>
<path fill-rule="evenodd" clip-rule="evenodd" d="M60.0799 49.3725L59.7583 48.9061C59.9434 48.7813 60.1232 48.6455 60.2927 48.5022L60.6636 48.9316C60.4784 49.0878 60.282 49.2363 60.0799 49.3725Z" fill="#333333"/>
<path fill-rule="evenodd" clip-rule="evenodd" d="M53.8571 52.2797C53.6245 52.2205 53.3905 52.1516 53.1616 52.0748L53.3451 51.5402C53.5605 51.6124 53.7807 51.6773 53.9995 51.733L53.8571 52.2797Z" fill="#333333"/>
<path fill-rule="evenodd" clip-rule="evenodd" d="M57.4353 34.0467C56.9948 33.9919 56.544 33.969 56.0979 33.9772L56.0867 33.4128C56.5589 33.4036 57.039 33.4284 57.5067 33.4866L57.4353 34.0467ZM53.4649 34.4135L53.2888 33.8766C53.7389 33.7323 54.2038 33.6199 54.6708 33.5427L54.765 34.0996C54.3257 34.1722 53.8883 34.2778 53.4649 34.4135ZM60.0066 34.7585C59.5996 34.5784 59.1759 34.427 58.7471 34.3083L58.9011 33.7647C59.3568 33.8909 59.8072 34.0518 60.2399 34.2433L60.0066 34.7585ZM51.0747 35.5879L50.7484 35.1245C51.1371 34.857 51.5485 34.616 51.9717 34.4081L52.2257 34.9136C51.8276 35.1093 51.4404 35.3361 51.0747 35.5879ZM62.2582 36.179C61.9211 35.8901 61.5601 35.6235 61.185 35.387L61.4924 34.9111C61.8907 35.1625 62.2742 35.4456 62.6323 35.7526L62.2582 36.179ZM49.1287 37.3959L48.6812 37.0451C48.9751 36.6787 49.2989 36.3305 49.6438 36.01L50.0348 36.4214C49.7102 36.7231 49.4052 37.051 49.1287 37.3959ZM63.9993 38.1806C63.7614 37.8089 63.4935 37.451 63.2028 37.117L63.6358 36.7488C63.9444 37.1037 64.229 37.4838 64.4818 37.8788L63.9993 38.1806ZM47.7929 39.6825L47.2618 39.475C47.4356 39.04 47.6441 38.6138 47.8811 38.2081L48.3755 38.4905C48.1525 38.8722 47.9565 39.2732 47.7929 39.6825ZM65.0795 40.5931C64.9613 40.1692 64.81 39.7499 64.6294 39.3472L65.1515 39.1184C65.3434 39.5467 65.5043 39.9924 65.63 40.4431L65.0795 40.5931ZM47.1881 42.254L46.6189 42.2082C46.6574 41.7407 46.7312 41.2733 46.8379 40.8188L47.3941 40.9466C47.2936 41.3741 47.2243 41.8141 47.1881 42.254ZM65.975 43.2269L65.4043 43.2133C65.406 43.1413 65.4069 43.0689 65.4069 42.9965C65.4069 42.627 65.3839 42.2552 65.3391 41.8912L65.9058 41.8227C65.9537 42.2094 65.9779 42.6042 65.9779 42.9965C65.9779 43.0733 65.977 43.1501 65.975 43.2269ZM46.8002 45.0068C46.7017 44.5503 46.6365 44.0816 46.6064 43.6135L47.1763 43.5778C47.2046 44.0182 47.2659 44.4596 47.3587 44.889L46.8002 45.0068ZM65.4948 45.9923L64.9524 45.8159C65.0914 45.3981 65.2001 44.9659 65.2753 44.5315L65.8381 44.6268C65.7582 45.0887 65.6426 45.5481 65.4948 45.9923ZM47.7949 47.6343C47.5653 47.2246 47.3648 46.7947 47.1993 46.357L47.7339 46.1592C47.8898 46.571 48.0784 46.9753 48.2944 47.3608L47.7949 47.6343ZM64.2216 48.5001L63.7543 48.1755C64.0105 47.815 64.2417 47.4329 64.4414 47.0394L64.9517 47.2928C64.7394 47.7108 64.4937 48.1171 64.2216 48.5001ZM49.5172 49.8634C49.1781 49.5367 48.8606 49.1828 48.5735 48.8112L49.0272 48.4685C49.2976 48.8183 49.5964 49.1515 49.9156 49.459L49.5172 49.8634ZM62.8755 50.0248L62.4871 49.6109C62.6312 49.4789 62.7722 49.3408 62.9066 49.2006L63.3213 49.5886C63.1784 49.7379 63.0285 49.8846 62.8755 50.0248ZM51.8166 51.5071C51.3967 51.2913 50.9892 51.0428 50.6057 50.7684L50.9404 50.3111C51.3013 50.5693 51.6847 50.8031 52.0799 51.0061L51.8166 51.5071Z" fill="#333333"/>
<path fill-rule="evenodd" clip-rule="evenodd" d="M61.7366 50.9226L61.415 50.4562C61.6027 50.3296 61.7876 50.1948 61.9645 50.0555L62.3202 50.4969C62.1324 50.645 61.936 50.7882 61.7366 50.9226Z" fill="#333333"/>
<path fill-rule="evenodd" clip-rule="evenodd" d="M93.2948 24.7707H79.5906C79.4999 24.7707 79.4144 24.728 79.3605 24.6556C79.3069 24.5833 79.2911 24.4899 79.3182 24.4042L80.5991 20.3526C80.6364 20.2347 80.7467 20.1544 80.8716 20.1544H82.5173V20.7189H81.0815L79.9789 24.2062H92.9065L91.8041 20.7189H90.3683V20.1544H92.014C92.1389 20.1544 92.2492 20.2347 92.2864 20.3526L93.5673 24.4042C93.5944 24.4899 93.5786 24.5833 93.5249 24.6556C93.471 24.728 93.3856 24.7707 93.2948 24.7707Z" fill="#333333"/>
<path fill-rule="evenodd" clip-rule="evenodd" d="M83.7188 20.719H89.1197V20.1544H83.7188V20.719Z" fill="#333333"/>
<path fill-rule="evenodd" clip-rule="evenodd" d="M82.5182 14.277C82.5067 14.277 82.4954 14.2774 82.4838 14.2786C82.2892 14.2968 82.1458 14.4685 82.1643 14.6611L82.9025 21.969C82.9132 22.0488 82.9694 22.2424 83.2542 22.2424C83.2721 22.2424 83.2906 22.2417 83.3098 22.2403C83.4235 22.2319 83.504 22.1998 83.5491 22.145C83.6209 22.0579 83.6104 21.9154 83.6102 21.9141L82.8709 14.5962C82.8534 14.4135 82.7018 14.277 82.5182 14.277ZM83.2543 22.8069H83.2542C82.5874 22.8069 82.3609 22.295 82.3344 22.0244L81.596 14.7157C81.5477 14.2119 81.9218 13.7643 82.4299 13.7166C82.9465 13.6673 83.3912 14.04 83.4392 14.5414L84.1774 21.8496C84.1815 21.8797 84.2194 22.2254 83.9919 22.5015C83.8901 22.6252 83.6963 22.7779 83.3522 22.8033C83.3182 22.8058 83.2857 22.8069 83.2543 22.8069Z" fill="#333333"/>
<path fill-rule="evenodd" clip-rule="evenodd" d="M90.3666 14.2769C90.1831 14.2769 90.0315 14.4134 90.0142 14.5946L89.2757 21.9057C89.2706 21.9896 89.3031 22.1432 89.5814 22.1832C89.6145 22.1879 89.6461 22.1904 89.6755 22.1904C89.9035 22.1904 89.9667 22.0319 89.9838 21.9553L90.721 14.6596C90.7393 14.4684 90.5957 14.2968 90.401 14.2785C90.3895 14.2774 90.378 14.2769 90.3666 14.2769ZM89.6755 22.7549H89.6754C89.6186 22.7549 89.5593 22.7505 89.499 22.7419C88.8584 22.6497 88.6749 22.1568 88.7078 21.848L89.4458 14.54C89.4937 14.0401 89.9385 13.6675 90.4549 13.7166C90.9631 13.7642 91.3373 14.2119 91.2893 14.7143L90.5506 22.025C90.55 22.0309 90.5493 22.0367 90.5484 22.0424C90.5078 22.2888 90.2731 22.7549 89.6755 22.7549Z" fill="#333333"/>
<path fill-rule="evenodd" clip-rule="evenodd" d="M93.2948 26.8602H79.5907C79.433 26.8602 79.3052 26.7339 79.3052 26.578V24.4884H79.8762V26.2957H93.0093V24.4884H93.5803V26.578C93.5803 26.7339 93.4525 26.8602 93.2948 26.8602Z" fill="#333333"/>
<path fill-rule="evenodd" clip-rule="evenodd" d="M44.4864 19.9741C44.4864 19.6345 44.2079 19.3591 43.8643 19.3591C43.5206 19.3591 43.2422 19.6345 43.2422 19.9741C43.2422 20.3137 43.5206 20.589 43.8643 20.589C44.2079 20.589 44.4864 20.3137 44.4864 19.9741Z" fill="#333333"/>
<path fill-rule="evenodd" clip-rule="evenodd" d="M46.2413 19.9741C46.2413 19.6345 45.9629 19.3591 45.6193 19.3591C45.2757 19.3591 44.9971 19.6345 44.9971 19.9741C44.9971 20.3137 45.2757 20.589 45.6193 20.589C45.9629 20.589 46.2413 20.3137 46.2413 19.9741Z" fill="#333333"/>
<path fill-rule="evenodd" clip-rule="evenodd" d="M47.9966 19.9741C47.9966 19.6345 47.7181 19.3591 47.3745 19.3591C47.0311 19.3591 46.7524 19.6345 46.7524 19.9741C46.7524 20.3137 47.0311 20.589 47.3745 20.589C47.7181 20.589 47.9966 20.3137 47.9966 19.9741Z" fill="#333333"/>
<path fill-rule="evenodd" clip-rule="evenodd" d="M65.8993 20.3447H66.141V19.6038H65.8993V20.3447ZM66.3123 20.6834H65.7279C65.6334 20.6834 65.5566 20.6075 65.5566 20.514V19.4343C65.5566 19.3409 65.6334 19.265 65.7279 19.265H66.3123C66.4069 19.265 66.4837 19.3409 66.4837 19.4343V20.514C66.4837 20.6075 66.4069 20.6834 66.3123 20.6834Z" fill="#333333"/>
<path fill-rule="evenodd" clip-rule="evenodd" d="M66.5433 20.6435H67.2554V19.305H66.5433V20.6435ZM67.4267 20.9822H66.4965C66.3334 20.9822 66.2007 20.8591 66.2007 20.7077V19.2407C66.2007 19.0893 66.3334 18.9662 66.4965 18.9662H67.4267C67.5213 18.9662 67.598 19.042 67.598 19.1356V20.8129C67.598 20.9065 67.5213 20.9822 67.4267 20.9822Z" fill="#333333"/>
<path fill-rule="evenodd" clip-rule="evenodd" d="M67.598 20.6435H68.2896V19.305H67.598V20.6435ZM68.4609 20.9822H67.4267C67.3321 20.9822 67.2554 20.9065 67.2554 20.8129V19.1356C67.2554 19.042 67.3321 18.9662 67.4267 18.9662H68.4609C68.5554 18.9662 68.6322 19.042 68.6322 19.1356V20.8129C68.6322 20.9065 68.5554 20.9822 68.4609 20.9822Z" fill="#333333"/>
<path fill-rule="evenodd" clip-rule="evenodd" d="M68.6322 20.6435H69.2842V19.305H68.6322V20.6435ZM69.3311 20.9822H68.4609C68.3663 20.9822 68.2896 20.9065 68.2896 20.8129V19.1356C68.2896 19.042 68.3663 18.9662 68.4609 18.9662H69.3311C69.4941 18.9662 69.6268 19.0893 69.6268 19.2407V20.7077C69.6268 20.8591 69.4941 20.9822 69.3311 20.9822Z" fill="#333333"/>
<path fill-rule="evenodd" clip-rule="evenodd" d="M54.0083 20.4716H58.7967V19.4768H54.0083V20.4716Z" fill="#BCBCBC"/>
<path fill-rule="evenodd" clip-rule="evenodd" d="M86.1338 28.2252H86.7048V26.8704H86.1338V28.2252ZM86.1338 30.9349H86.7048V29.58H86.1338V30.9349ZM86.1338 33.6446H86.7048V32.2897H86.1338V33.6446ZM86.1338 36.3542H86.7048V34.9994H86.1338V36.3542ZM87.826 38.6805C87.3378 38.5202 86.902 38.2031 86.5989 37.7881L87.062 37.4576C87.2954 37.7774 87.6307 38.0215 88.006 38.1448L87.826 38.6805ZM89.2743 38.8037H90.6447V38.2392H89.2743V38.8037ZM92.0151 38.8037H93.3855V38.2392H92.0151V38.8037ZM94.7558 38.8037H96.1262V38.2392H94.7558V38.8037ZM97.4966 38.8037H98.867V38.2392H97.4966V38.8037Z" fill="#333333"/>
<path fill-rule="evenodd" clip-rule="evenodd" d="M67.021 31.1339H50.0391L48.7729 33.2632L47.6515 31.1339H45.7778V24.7263H67.021V31.1339Z" fill="#3BC1C3"/>
<path fill-rule="evenodd" clip-rule="evenodd" d="M46.0632 30.8517H47.6512C47.7577 30.8517 47.8553 30.9103 47.9045 31.0035L48.7879 32.6808L49.7927 30.9909C49.844 30.9046 49.9376 30.8517 50.0388 30.8517H66.7353V25.0086H46.0632V30.8517ZM48.7728 33.5454C48.7703 33.5454 48.7679 33.5454 48.7654 33.5453C48.6616 33.5427 48.5675 33.4846 48.5195 33.3936L47.4781 31.4162H45.7777C45.62 31.4162 45.4922 31.2899 45.4922 31.1339V24.7264C45.4922 24.5704 45.62 24.4441 45.7777 24.4441H67.0208C67.1784 24.4441 67.3063 24.5704 67.3063 24.7264V31.1339C67.3063 31.2899 67.1784 31.4162 67.0208 31.4162H50.2022L49.0189 33.4062C48.9675 33.4927 48.8737 33.5454 48.7728 33.5454Z" fill="#333333"/>
<path fill-rule="evenodd" clip-rule="evenodd" d="M63.5576 27.0071H65.0092V26.4425H63.5576V27.0071Z" fill="#333333"/>
<path fill-rule="evenodd" clip-rule="evenodd" d="M47.9014 28.7219H61.2271V28.1573H47.9014V28.7219Z" fill="white"/>
<path fill-rule="evenodd" clip-rule="evenodd" d="M47.9014 27.4534H61.2271V26.8889H47.9014V27.4534Z" fill="white"/>
<path fill-rule="evenodd" clip-rule="evenodd" d="M83.2978 9.16918C83.0861 9.16918 82.875 9.09161 82.7113 8.93344C82.3789 8.61369 82.3713 8.08757 82.695 7.7589C84.7757 5.64502 88.2081 5.59703 90.3462 7.65323C90.6795 7.97297 90.6868 8.49921 90.3629 8.82878C90.039 9.15744 89.5066 9.16466 89.1743 8.84458C87.7016 7.42719 85.3348 7.46061 83.9003 8.9174C83.7356 9.08552 83.5165 9.16918 83.2978 9.16918Z" fill="#3BC1C3"/>
<path fill-rule="evenodd" clip-rule="evenodd" d="M81.3862 6.00196C81.1749 6.00196 80.9635 5.92405 80.7998 5.76723C80.4672 5.44749 80.4597 4.92125 80.7833 4.59213C82.3016 3.04795 84.3372 2.1812 86.5147 2.15128C88.6923 2.12881 90.7517 2.93087 92.313 4.4317C92.6456 4.75212 92.6533 5.27836 92.33 5.60747C92.0056 5.9367 91.4742 5.94313 91.141 5.62373C89.901 4.43204 88.2627 3.8026 86.5377 3.8131C84.8099 3.83692 83.1937 4.52507 81.9891 5.75052C81.8238 5.91795 81.6048 6.00196 81.3862 6.00196Z" fill="#3BC1C3"/>
<path fill-rule="evenodd" clip-rule="evenodd" d="M87.7015 11.1929C87.7015 11.8328 87.1762 12.3518 86.5285 12.3518C85.8821 12.3518 85.3569 11.8328 85.3569 11.1929C85.3569 10.5528 85.8821 10.0345 86.5285 10.0345C87.1762 10.0345 87.7015 10.5528 87.7015 11.1929Z" fill="#3BC1C3"/>
<path fill-rule="evenodd" clip-rule="evenodd" d="M83.1971 57.2809C82.7079 57.2809 82.3098 57.6744 82.3098 58.1582V68.7848C82.3098 69.2685 82.7079 69.6619 83.1971 69.6619H102.137C102.626 69.6619 103.024 69.2685 103.024 68.7848V58.1582C103.024 57.6744 102.626 57.2809 102.137 57.2809H83.1971ZM102.137 70.2264H83.1971C82.393 70.2264 81.7388 69.5797 81.7388 68.7848V58.1582C81.7388 57.3633 82.393 56.7164 83.1971 56.7164H102.137C102.941 56.7164 103.595 57.3633 103.595 58.1582V68.7848C103.595 69.5797 102.941 70.2264 102.137 70.2264Z" fill="#333333"/>
<path fill-rule="evenodd" clip-rule="evenodd" d="M86.0985 58.5263C84.9515 58.5263 84.0183 59.449 84.0183 60.5829C84.0183 61.7169 84.9515 62.6396 86.0985 62.6396C87.2454 62.6396 88.1785 61.7169 88.1785 60.5829C88.1785 59.449 87.2454 58.5263 86.0985 58.5263ZM86.0985 63.2041C84.6367 63.2041 83.4473 62.0282 83.4473 60.5829C83.4473 59.1377 84.6367 57.9618 86.0985 57.9618C87.5603 57.9618 88.7495 59.1377 88.7495 60.5829C88.7495 62.0282 87.5603 63.2041 86.0985 63.2041Z" fill="#333333"/>
<path fill-rule="evenodd" clip-rule="evenodd" d="M86.9364 60.5829C86.9364 61.0403 86.5613 61.411 86.0989 61.411C85.6363 61.411 85.2612 61.0403 85.2612 60.5829C85.2612 60.1255 85.6363 59.7548 86.0989 59.7548C86.5613 59.7548 86.9364 60.1255 86.9364 60.5829Z" fill="#E74C3C"/>
<path fill-rule="evenodd" clip-rule="evenodd" d="M86.0987 60.037C85.7943 60.037 85.5466 60.2819 85.5466 60.5829C85.5466 60.8839 85.7943 61.1288 86.0987 61.1288C86.4031 61.1288 86.6508 60.8839 86.6508 60.5829C86.6508 60.2819 86.4031 60.037 86.0987 60.037ZM86.0987 61.6933C85.4794 61.6933 84.9756 61.1952 84.9756 60.5829C84.9756 59.9707 85.4794 59.4725 86.0987 59.4725C86.718 59.4725 87.2218 59.9707 87.2218 60.5829C87.2218 61.1952 86.718 61.6933 86.0987 61.6933Z" fill="#333333"/>
<path fill-rule="evenodd" clip-rule="evenodd" d="M86.9888 60.8652H88.464V60.3007H86.9888V60.8652Z" fill="#333333"/>
<path fill-rule="evenodd" clip-rule="evenodd" d="M86.0985 64.3033C85.5429 64.3033 85.0206 64.5173 84.6276 64.9057C83.8167 65.7074 83.8168 67.0121 84.6279 67.8143C85.0207 68.2025 85.543 68.4165 86.0986 68.4165C86.6541 68.4165 87.1764 68.2025 87.5694 67.8143C87.9622 67.4258 88.1787 66.9092 88.1787 66.36C88.1787 65.8106 87.9621 65.2941 87.5693 64.9057C87.1763 64.5173 86.654 64.3033 86.0985 64.3033ZM86.0986 68.981C85.3905 68.981 84.7248 68.7085 84.224 68.2134C83.1903 67.191 83.1903 65.5282 84.2239 64.5066C84.7247 64.0115 85.3904 63.7388 86.0985 63.7388C86.8065 63.7388 87.4722 64.0115 87.973 64.5066C88.4739 65.0015 88.7496 65.6598 88.7496 66.36C88.7496 67.0601 88.4739 67.7183 87.9731 68.2134C87.4723 68.7085 86.8067 68.981 86.0986 68.981Z" fill="#333333"/>
<path fill-rule="evenodd" clip-rule="evenodd" d="M86.6911 66.9452C86.364 67.2688 85.8336 67.2685 85.5065 66.9452C85.1796 66.6221 85.1793 66.0975 85.5065 65.7742C85.8336 65.4513 86.364 65.4513 86.6911 65.7742C87.0182 66.0973 87.0182 66.6221 86.6911 66.9452Z" fill="#E74C3C"/>
<path fill-rule="evenodd" clip-rule="evenodd" d="M86.0987 65.8142C85.9512 65.8142 85.8124 65.871 85.7082 65.9739C85.604 66.0768 85.5466 66.2139 85.5466 66.3598C85.5466 66.5055 85.604 66.6426 85.7083 66.7456C85.8127 66.8487 85.9513 66.9057 86.0989 66.9057C86.2463 66.9057 86.3849 66.8489 86.4891 66.7457C86.5935 66.6426 86.6509 66.5055 86.6509 66.3598C86.6509 66.2139 86.5935 66.0768 86.4892 65.9739C86.385 65.871 86.2463 65.8142 86.0987 65.8142ZM86.0989 67.4702C85.7989 67.4702 85.5167 67.3547 85.3046 67.1448C85.0924 66.9352 84.9757 66.6565 84.9756 66.3599C84.9756 66.0632 85.0924 65.7842 85.3046 65.5745C85.5168 65.365 85.7989 65.2497 86.0987 65.2497C86.3986 65.2497 86.6807 65.365 86.8928 65.5745C87.1051 65.7841 87.2219 66.0629 87.2219 66.3598C87.2219 66.6565 87.1051 66.9353 86.8929 67.1449C86.6809 67.3547 86.3989 67.4702 86.0989 67.4702Z" fill="#333333"/>
<path fill-rule="evenodd" clip-rule="evenodd" d="M87.5696 68.2134L86.5264 67.1819L86.9301 66.7828L87.9733 67.8143L87.5696 68.2134Z" fill="#333333"/>
<path fill-rule="evenodd" clip-rule="evenodd" d="M97.6475 66.7576H99.8759V65.5981H97.6475V66.7576Z" fill="#3BC1C3"/>
<path fill-rule="evenodd" clip-rule="evenodd" d="M97.9333 66.4754H99.5908V65.8804H97.9333V66.4754ZM99.8763 67.0399H97.6478C97.4901 67.0399 97.3623 66.9134 97.3623 66.7576V65.5981C97.3623 65.4422 97.4901 65.3159 97.6478 65.3159H99.8763C100.034 65.3159 100.162 65.4422 100.162 65.5981V66.7576C100.162 66.9134 100.034 67.0399 99.8763 67.0399Z" fill="#333333"/>
<path fill-rule="evenodd" clip-rule="evenodd" d="M97.6475 65.5981H99.8759V64.439H97.6475V65.5981Z" fill="#3BC1C3"/>
<path fill-rule="evenodd" clip-rule="evenodd" d="M97.9333 65.3158H99.5908V64.7213H97.9333V65.3158ZM99.8763 65.8803H97.6478C97.4901 65.8803 97.3623 65.754 97.3623 65.5981V64.439C97.3623 64.2832 97.4901 64.1567 97.6478 64.1567H99.8763C100.034 64.1567 100.162 64.2832 100.162 64.439V65.5981C100.162 65.754 100.034 65.8803 99.8763 65.8803Z" fill="#333333"/>
<path fill-rule="evenodd" clip-rule="evenodd" d="M97.6475 64.5025H99.8759V63.343H97.6475V64.5025Z" fill="#3BC1C3"/>
<path fill-rule="evenodd" clip-rule="evenodd" d="M97.9333 64.2204H99.5908V63.6254H97.9333V64.2204ZM99.8763 64.7849H97.6478C97.4901 64.7849 97.3623 64.6585 97.3623 64.5026V63.3431C97.3623 63.1873 97.4901 63.0609 97.6478 63.0609H99.8763C100.034 63.0609 100.162 63.1873 100.162 63.3431V64.5026C100.162 64.6585 100.034 64.7849 99.8763 64.7849Z" fill="#333333"/>
<path fill-rule="evenodd" clip-rule="evenodd" d="M97.9333 63.0914H99.5908V62.4966H97.9333V63.0914ZM99.8763 63.6559H97.6478C97.4901 63.6559 97.3623 63.5296 97.3623 63.3737V62.2144C97.3623 62.0585 97.4901 61.9321 97.6478 61.9321H99.8763C100.034 61.9321 100.162 62.0585 100.162 62.2144V63.3737C100.162 63.5296 100.034 63.6559 99.8763 63.6559Z" fill="#333333"/>
<path fill-rule="evenodd" clip-rule="evenodd" d="M97.9333 61.922H99.5908V61.3272H97.9333V61.922ZM99.8763 62.4865H97.6478C97.4901 62.4865 97.3623 62.3602 97.3623 62.2043V61.0451C97.3623 60.8892 97.4901 60.7628 97.6478 60.7628H99.8763C100.034 60.7628 100.162 60.8892 100.162 61.0451V62.2043C100.162 62.3602 100.034 62.4865 99.8763 62.4865Z" fill="#333333"/>
<path fill-rule="evenodd" clip-rule="evenodd" d="M90.8295 58.7114C90.5988 58.7114 90.4113 58.8859 90.4113 59.1003V67.8425C90.4113 68.0568 90.5988 68.2312 90.8295 68.2312H101.034C101.264 68.2312 101.452 68.0568 101.452 67.8425V59.1003C101.452 58.8859 101.264 58.7114 101.034 58.7114H90.8295ZM101.034 68.7957H90.8295C90.2841 68.7957 89.8403 68.368 89.8403 67.8425V59.1003C89.8403 58.5746 90.2841 58.1469 90.8295 58.1469H101.034C101.579 58.1469 102.023 58.5746 102.023 59.1003V67.8425C102.023 68.368 101.579 68.7957 101.034 68.7957Z" fill="#333333"/>
<path fill-rule="evenodd" clip-rule="evenodd" d="M91.9351 66.5962L92.5263 65.9826C92.9526 65.5401 93.2946 65.1602 93.2946 64.7804C93.2946 64.413 93.092 64.2669 92.6993 64.2669C92.484 64.2669 92.2306 64.3714 92.0617 64.4716L91.9731 64.0708C92.18 63.9498 92.4925 63.8371 92.847 63.8371C93.5225 63.8371 93.8689 64.1584 93.8689 64.7094C93.8689 65.2521 93.4001 65.7364 93.0244 66.1203L92.6612 66.4877H93.8941V66.9135H91.9351V66.5962Z" fill="#333333"/>
<path fill-rule="evenodd" clip-rule="evenodd" d="M95.9297 65.9659C95.9297 65.5569 95.6975 65.4066 95.3849 65.4066C95.1612 65.4066 94.9375 65.5611 94.8319 65.703V65.728C94.8319 66.2457 94.9923 66.5628 95.3977 66.5628C95.7271 66.5628 95.9297 66.3457 95.9297 65.9659ZM94.2788 65.6195V65.4024C94.2788 64.2629 94.8657 63.8413 95.6003 63.8413C95.9085 63.8413 96.1872 63.9373 96.3181 64.0124L96.2125 64.4131C96.0942 64.3505 95.8325 64.2795 95.6299 64.2795C95.1739 64.2795 94.8699 64.5008 94.8278 65.2814C94.9839 65.1478 95.2287 65.0141 95.5455 65.0141C96.0774 65.0141 96.4616 65.3439 96.4616 65.9243C96.4616 66.5087 96.0942 66.9677 95.4103 66.9677C94.6672 66.9677 94.2788 66.4543 94.2788 65.6195Z" fill="#333333"/>
<path fill-rule="evenodd" clip-rule="evenodd" d="M100.936 33.7821C100.505 33.7821 100.155 34.1283 100.155 34.5537V48.5136C100.155 48.9389 100.505 49.285 100.936 49.285H110.704C111.134 49.285 111.484 48.9389 111.484 48.5136V34.5537C111.484 34.1283 111.134 33.7821 110.704 33.7821H100.936ZM110.704 49.8495H100.936C100.191 49.8495 99.5845 49.2502 99.5845 48.5136V34.5537C99.5845 33.817 100.191 33.2176 100.936 33.2176H110.704C111.449 33.2176 112.055 33.817 112.055 34.5537V48.5136C112.055 49.2502 111.449 49.8495 110.704 49.8495Z" fill="#333333"/>
<path fill-rule="evenodd" clip-rule="evenodd" d="M101.979 41.5113H109.659V36.3066H101.979V41.5113Z" fill="#E74C3C"/>
<path fill-rule="evenodd" clip-rule="evenodd" d="M102.265 41.2291H109.374V36.5888H102.265V41.2291ZM109.66 41.7936H101.98C101.822 41.7936 101.694 41.6672 101.694 41.5113V36.3067C101.694 36.1508 101.822 36.0244 101.98 36.0244H109.66C109.817 36.0244 109.945 36.1508 109.945 36.3067V41.5113C109.945 41.6672 109.817 41.7936 109.66 41.7936Z" fill="#333333"/>
<path fill-rule="evenodd" clip-rule="evenodd" d="M102.265 46.4785H109.374V41.8381H102.265V46.4785ZM109.66 47.043H101.98C101.822 47.043 101.694 46.9166 101.694 46.7607V41.556C101.694 41.4001 101.822 41.2737 101.98 41.2737H109.66C109.817 41.2737 109.945 41.4001 109.945 41.556V46.7607C109.945 46.9166 109.817 47.043 109.66 47.043Z" fill="#333333"/>
<path fill-rule="evenodd" clip-rule="evenodd" d="M107.813 40.4278H108.408V37.3903H107.813V40.4278Z" fill="white"/>
<path fill-rule="evenodd" clip-rule="evenodd" d="M107.813 45.6773H108.408V42.6395H107.813V45.6773Z" fill="#BCBCBC"/>
<path fill-rule="evenodd" clip-rule="evenodd" d="M92.3813 40.0403H92.9524V38.6854H92.3813V40.0403ZM92.3813 42.7499H92.9524V41.3951H92.3813V42.7499ZM92.3813 45.4596H92.9524V44.1048H92.3813V45.4596ZM92.3813 48.1693H92.9524V46.8145H92.3813V48.1693ZM92.3813 50.879H92.9524V49.5241H92.3813V50.879ZM92.3813 53.5887H92.9524V52.2338H92.3813V53.5887ZM92.3813 56.2983H92.9524V54.9435H92.3813V56.2983Z" fill="#333333"/>
<path fill-rule="evenodd" clip-rule="evenodd" d="M9.5455 34.2153C7.55055 34.2153 6.10274 35.7928 6.10274 37.9663V40.2597C6.10274 42.3581 7.48626 43.7679 9.5455 43.7679H10.4401C12.4994 43.7679 13.8829 42.3581 13.8829 40.2597V37.9663C13.8829 35.7928 12.4351 34.2153 10.4401 34.2153H9.5455ZM10.4401 44.3324H9.5455C7.14469 44.3324 5.53174 42.6957 5.53174 40.2597V37.9663C5.53174 35.4657 7.21972 33.6508 9.5455 33.6508H10.4401C12.7659 33.6508 14.4539 35.4657 14.4539 37.9663V40.2597C14.4539 42.6957 12.841 44.3324 10.4401 44.3324Z" fill="#333333"/>
<path fill-rule="evenodd" clip-rule="evenodd" d="M12.3817 37.9952C12.3817 39.2998 11.3121 40.3574 9.99242 40.3574C8.67285 40.3574 7.60303 39.2998 7.60303 37.9952C7.60303 36.6905 8.67285 35.6328 9.99242 35.6328C11.3121 35.6328 12.3817 36.6905 12.3817 37.9952Z" fill="#E74C3C"/>
<path fill-rule="evenodd" clip-rule="evenodd" d="M9.99276 35.9151C8.83273 35.9151 7.88887 36.8483 7.88887 37.9953C7.88887 39.1421 8.83273 40.0752 9.99276 40.0752C11.1528 40.0752 12.0965 39.1421 12.0965 37.9953C12.0965 36.8483 11.1528 35.9151 9.99276 35.9151ZM9.99276 40.6397C8.51776 40.6397 7.31787 39.4534 7.31787 37.9953C7.31787 36.537 8.51776 35.3506 9.99276 35.3506C11.4676 35.3506 12.6675 36.537 12.6675 37.9953C12.6675 39.4534 11.4676 40.6397 9.99276 40.6397Z" fill="#333333"/>
<path fill-rule="evenodd" clip-rule="evenodd" d="M11.3686 37.9952C11.3686 38.7465 10.7524 39.3557 9.99231 39.3557C9.23243 39.3557 8.61621 38.7465 8.61621 37.9952C8.61621 37.2437 9.23243 36.6345 9.99231 36.6345C10.7524 36.6345 11.3686 37.2437 11.3686 37.9952Z" fill="#333333"/>
<path fill-rule="evenodd" clip-rule="evenodd" d="M15.2422 48.0351H4.7433C3.97839 48.0351 3.26213 47.4269 3.14668 46.6794L2.3241 41.3559C2.2654 40.9763 2.36464 40.6159 2.60343 40.3411C2.84211 40.0663 3.18745 39.9149 3.57584 39.9149H5.87867V40.4794H3.57584C3.35658 40.4794 3.16506 40.561 3.03659 40.709C2.908 40.8569 2.85547 41.0564 2.88847 41.2707L3.71105 46.594C3.78448 47.0693 4.25727 47.4706 4.7433 47.4706H15.2422C15.7284 47.4706 16.201 47.0693 16.2745 46.594L17.097 41.2707C17.1302 41.0564 17.0776 40.8569 16.949 40.709C16.8205 40.561 16.6289 40.4794 16.4098 40.4794H14.3287V39.9149H16.4098C16.7981 39.9149 17.1434 40.0663 17.3822 40.3411C17.621 40.6159 17.7201 40.9763 17.6615 41.3559L16.8388 46.6794C16.7234 47.4269 16.0071 48.0351 15.2422 48.0351Z" fill="#333333"/>
<path fill-rule="evenodd" clip-rule="evenodd" d="M11.5908 46.5616H15.1093V45.7872H11.5908V46.5616Z" fill="#BCBCBC"/>
<path fill-rule="evenodd" clip-rule="evenodd" d="M95.3274 15.4662C95.2419 15.4662 95.1564 15.479 95.0736 15.5041C94.6182 15.6424 94.3615 16.1212 94.5013 16.5715C94.6134 16.9324 94.9451 17.1749 95.3267 17.1749C95.4124 17.1749 95.4978 17.1622 95.5807 17.137C96.036 16.9987 96.2926 16.5201 96.1529 16.0702C96.0407 15.7089 95.7089 15.4662 95.3274 15.4662ZM95.3267 17.7394C94.6927 17.7394 94.1417 17.3366 93.9554 16.7371C93.7232 15.9892 94.1497 15.194 94.9061 14.9645C95.0431 14.9228 95.1849 14.9017 95.3274 14.9017C95.9613 14.9017 96.5124 15.3047 96.6987 15.9044C96.931 16.6518 96.5047 17.4469 95.7484 17.6767C95.6111 17.7183 95.4692 17.7394 95.3267 17.7394Z" fill="#333333"/>
<path fill-rule="evenodd" clip-rule="evenodd" d="M97.3693 12.9202C97.3168 12.9202 97.2642 12.928 97.2133 12.9434C96.9341 13.0282 96.7767 13.3221 96.8625 13.5984C96.9314 13.82 97.1349 13.9689 97.3688 13.9689C97.4214 13.9689 97.4738 13.961 97.5248 13.9456C97.8043 13.8608 97.9618 13.5669 97.876 13.2906C97.8073 13.0691 97.6035 12.9202 97.3693 12.9202ZM97.3688 14.5334C96.8825 14.5334 96.4597 14.2243 96.3166 13.7641C96.1386 13.1901 96.4656 12.5799 97.0458 12.4037C97.1512 12.3718 97.26 12.3557 97.3693 12.3557C97.856 12.3557 98.279 12.6648 98.4219 13.1249C98.6 13.6987 98.2728 14.3089 97.6925 14.4852C97.5871 14.5172 97.4783 14.5334 97.3688 14.5334Z" fill="#333333"/>
<path fill-rule="evenodd" clip-rule="evenodd" d="M2.3916 30.9145H2.9626V29.5274H2.3916V30.9145Z" fill="#333333"/>
<path fill-rule="evenodd" clip-rule="evenodd" d="M2.3916 35.1771H2.9626V33.7902H2.3916V35.1771Z" fill="#333333"/>
<path fill-rule="evenodd" clip-rule="evenodd" d="M4.94497 34.0934L3.75684 33.3561L4.06038 32.8779L5.24851 33.6152L4.94497 34.0934Z" fill="#333333"/>
<path fill-rule="evenodd" clip-rule="evenodd" d="M1.29334 31.8265L0.10498 31.0894L0.408408 30.6111L1.59677 31.3484L1.29334 31.8265Z" fill="#333333"/>
<path fill-rule="evenodd" clip-rule="evenodd" d="M0.258173 33.8838L-0.000488281 33.3805L1.25068 32.752L1.50934 33.2554L0.258173 33.8838Z" fill="#333333"/>
<path fill-rule="evenodd" clip-rule="evenodd" d="M4.10253 31.9524L3.84375 31.4492L5.09469 30.8205L5.35346 31.3237L4.10253 31.9524Z" fill="#333333"/>
<path fill-rule="evenodd" clip-rule="evenodd" d="M20.562 38.411H21.133V37.6464H20.562V38.411Z" fill="#333333"/>
<path fill-rule="evenodd" clip-rule="evenodd" d="M20.562 40.7615H21.133V39.9968H20.562V40.7615Z" fill="#333333"/>
<path fill-rule="evenodd" clip-rule="evenodd" d="M22.03 40.2712L21.375 39.8645L21.6785 39.3865L22.3336 39.7932L22.03 40.2712Z" fill="#333333"/>
<path fill-rule="evenodd" clip-rule="evenodd" d="M20.0166 39.0214L19.3613 38.6147L19.6649 38.1365L20.3201 38.5432L20.0166 39.0214Z" fill="#333333"/>
<path fill-rule="evenodd" clip-rule="evenodd" d="M19.5723 40.1611L19.3135 39.6579L20.0032 39.3114L20.262 39.8146L19.5723 40.1611Z" fill="#333333"/>
<path fill-rule="evenodd" clip-rule="evenodd" d="M21.692 39.0964L21.4331 38.5932L22.1228 38.2464L22.3816 38.7496L21.692 39.0964Z" fill="#333333"/>
<path fill-rule="evenodd" clip-rule="evenodd" d="M33.6509 74.5983H36.4516V71.8293H33.6509V74.5983Z" fill="#BCBCBC"/>
<path fill-rule="evenodd" clip-rule="evenodd" d="M30.7764 71.3749H33.1907V68.9879H30.7764V71.3749Z" fill="#BCBCBC"/>
<path fill-rule="evenodd" clip-rule="evenodd" d="M81.0918 44.1981H83.8925V41.4291H81.0918V44.1981Z" fill="#BCBCBC"/>
<path fill-rule="evenodd" clip-rule="evenodd" d="M78.2173 40.9747H80.6317V38.5877H78.2173V40.9747Z" fill="#BCBCBC"/>
<path fill-rule="evenodd" clip-rule="evenodd" d="M26.4883 20.4275H29.2894V17.6586H26.4883V20.4275Z" fill="#BCBCBC"/>
<path fill-rule="evenodd" clip-rule="evenodd" d="M29.6304 17.1322H32.4311V14.3633H29.6304V17.1322Z" fill="#BCBCBC"/>
<path fill-rule="evenodd" clip-rule="evenodd" d="M26.875 13.9195H29.2894V11.5327H26.875V13.9195Z" fill="#BCBCBC"/>
<path fill-rule="evenodd" clip-rule="evenodd" d="M78.4199 47.0193H80.8342V44.6324H78.4199V47.0193Z" fill="#BCBCBC"/>
<path fill-rule="evenodd" clip-rule="evenodd" d="M6.22217 55.0814H6.79316V52.2842H6.22217V55.0814Z" fill="#333333"/>
<path fill-rule="evenodd" clip-rule="evenodd" d="M5.09326 53.9651H7.92255V53.4006H5.09326V53.9651Z" fill="#333333"/>
<path fill-rule="evenodd" clip-rule="evenodd" d="M86.514 50.9693L86.1104 50.5702L87.0619 49.6297L87.4656 50.0288L86.514 50.9693Z" fill="#333333"/>
<path fill-rule="evenodd" clip-rule="evenodd" d="M87.0617 52.7391L86.1104 51.7986L86.5141 51.3994L87.4654 52.34L87.0617 52.7391Z" fill="#333333"/>
<path fill-rule="evenodd" clip-rule="evenodd" d="M85.3559 50.9693L84.4048 50.0288L84.8085 49.6297L85.7596 50.5702L85.3559 50.9693Z" fill="#333333"/>
<path fill-rule="evenodd" clip-rule="evenodd" d="M84.8085 52.7392L84.4048 52.3401L85.3559 51.3997L85.7596 51.7988L84.8085 52.7392Z" fill="#333333"/>
<path fill-rule="evenodd" clip-rule="evenodd" d="M20.0729 5.16886L19.8356 4.65537C20.05 4.5585 20.279 4.50928 20.5159 4.50928L20.5574 4.50984C20.586 4.51041 20.6148 4.51199 20.6432 4.51413L20.6001 5.07695C20.5815 5.0756 20.5627 5.0747 20.5438 5.07424L20.5159 5.07379C20.3615 5.07379 20.2124 5.10574 20.0729 5.16886ZM22.1105 6.50812L21.5553 6.3767C21.5727 6.30489 21.5825 6.2306 21.5844 6.15608L21.5848 6.12899C21.5848 5.95703 21.544 5.79287 21.4638 5.64136L21.9697 5.37954C22.0915 5.60952 22.1558 5.86863 22.1558 6.12899L22.1552 6.16997C22.1522 6.28423 22.1373 6.39792 22.1105 6.50812ZM18.9914 6.72432C18.9158 6.5351 18.8774 6.33526 18.8774 6.13057L18.8779 6.08947C18.8794 6.03245 18.8837 5.97521 18.8911 5.91921L19.4573 5.99203C19.4525 6.0285 19.4497 6.06553 19.4488 6.10313L19.4484 6.13057C19.4484 6.26402 19.4733 6.39408 19.5224 6.51703L18.9914 6.72432ZM20.5168 7.75028L20.4755 7.74971C20.3891 7.74757 20.3027 7.73876 20.2181 7.72329L20.3216 7.16815C20.3768 7.1782 20.4333 7.18407 20.4897 7.18542L20.5168 7.18576C20.6327 7.18576 20.7465 7.16747 20.8554 7.13145L21.0367 7.66673C20.8694 7.72216 20.6945 7.75028 20.5168 7.75028Z" fill="#333333"/>
<path fill-rule="evenodd" clip-rule="evenodd" d="M5.34299 16.7191L5.1388 16.1919C5.38182 16.0999 5.63751 16.0483 5.89857 16.0387L5.91993 16.6028C5.72145 16.6101 5.52742 16.6493 5.34299 16.7191ZM7.26097 17.117C7.1197 16.9792 6.958 16.8659 6.78019 16.7805L7.02983 16.2729C7.26371 16.3852 7.47646 16.5341 7.66204 16.7153L7.26097 17.117ZM4.31417 17.7132L3.78565 17.4996C3.88409 17.2616 4.02091 17.0421 4.1922 16.8473L4.62308 17.2176C4.49289 17.3658 4.38897 17.5325 4.31417 17.7132ZM8.36996 18.4499L7.79919 18.4357C7.79965 18.4204 7.79976 18.4051 7.79976 18.3899C7.79976 18.2088 7.77235 18.0302 7.71845 17.8588L8.26364 17.691C8.33467 17.9167 8.37076 18.1519 8.37076 18.3899C8.37076 18.4098 8.37053 18.4298 8.36996 18.4499ZM3.82414 19.37C3.71565 19.1359 3.64725 18.8869 3.62109 18.6302L4.18912 18.5735C4.20911 18.7682 4.26095 18.9572 4.34329 19.135L3.82414 19.37ZM7.97117 19.6968L7.49622 19.3832C7.60642 19.2202 7.68808 19.0418 7.73878 18.853L8.2907 18.9982C8.22367 19.2471 8.11621 19.482 7.97117 19.6968ZM5.23039 20.6222C4.98372 20.5403 4.75338 20.4192 4.54577 20.2625L4.89236 19.8138C5.05007 19.933 5.22502 20.0249 5.4122 20.0872L5.23039 20.6222ZM6.38221 20.7129L6.28868 20.1559C6.48373 20.1239 6.67113 20.0606 6.84574 19.9678L7.11605 20.4651C6.88605 20.5872 6.63927 20.6707 6.38221 20.7129Z" fill="#333333"/>
<path fill-rule="evenodd" clip-rule="evenodd" d="M17.9609 44.3551H18.6521V43.7906H17.9609V44.3551Z" fill="#333333"/>
<path fill-rule="evenodd" clip-rule="evenodd" d="M20.1299 44.3551H21.6078V43.7906H20.1299V44.3551ZM23.0857 44.3551H24.5637V43.7906H23.0857V44.3551ZM26.0415 44.3551H27.5195V43.7906H26.0415V44.3551ZM28.9976 44.3551H30.4754V43.7906H28.9976V44.3551ZM31.9534 44.3551H33.4312V43.7906H31.9534V44.3551ZM34.9092 44.3551H36.3872V43.7906H34.9092V44.3551Z" fill="#333333"/>
<path fill-rule="evenodd" clip-rule="evenodd" d="M37.8652 44.3551H38.5564V43.7906H37.8652V44.3551Z" fill="#333333"/>
</g>
</svg>
