<svg width="24" height="24" viewBox="0 0 24 24" fill="none" xmlns="http://www.w3.org/2000/svg">
<g clip-path="url(#clip0)">
<path d="M0.493164 24H8.63015C12.4886 24 15.6165 20.8721 15.6165 17.0137H7.47947C3.62104 17.0137 0.493164 20.1415 0.493164 24Z" fill="#F22BB2"/>
<path d="M0.856934 6.9863V17.2603C4.71536 17.2603 7.84324 14.1324 7.84324 10.274V0C3.98481 0 0.856934 3.12787 0.856934 6.9863Z" fill="#8C30F5"/>
<path d="M23.5071 0H15.3701C11.5117 0 8.38379 3.12787 8.38379 6.9863H16.5208C20.3792 6.9863 23.5071 3.85843 23.5071 0Z" fill="#FE9A22"/>
<path d="M23.5068 16.6026V6.32861C19.6484 6.32861 16.5205 9.45649 16.5205 13.3149V23.5889C20.3789 23.5889 23.5068 20.461 23.5068 16.6026Z" fill="#2EC5CE"/>
</g>
<defs>
<clipPath id="clip0">
<rect width="24" height="24" fill="white"/>
</clipPath>
</defs>
</svg>
