<svg width="33" height="35" viewBox="0 0 33 35" fill="none" xmlns="http://www.w3.org/2000/svg">
<path opacity="0.1" fill-rule="evenodd" clip-rule="evenodd" d="M0.141113 17.4482C0.141113 8.30287 7.34196 0.88916 16.2246 0.88916C25.1073 0.88916 32.3082 8.30287 32.3082 17.4482C32.3082 26.5934 25.1073 34.0071 16.2246 34.0071C7.34196 34.0071 0.141113 26.5934 0.141113 17.4482Z" fill="#333333"/>
<path fill-rule="evenodd" clip-rule="evenodd" d="M15.7432 14.3484L15.7769 14.9214L15.2144 14.8512C13.1669 14.5823 11.3781 13.6702 9.85937 12.1384L9.11686 11.3783L8.92561 11.9396C8.52061 13.1908 8.77936 14.5121 9.62312 15.4008C10.0731 15.892 9.97187 15.9621 9.19561 15.6698C8.92561 15.5762 8.68936 15.5061 8.66686 15.5412C8.58811 15.623 8.85811 16.6871 9.07186 17.1081C9.36437 17.6927 9.96062 18.2657 10.6131 18.6048L11.1644 18.8738L10.5119 18.8855C9.88187 18.8855 9.85937 18.8972 9.92687 19.1427C10.1519 19.9028 11.0406 20.7097 12.0306 21.0605L12.7281 21.306L12.1206 21.6802C11.2206 22.2181 10.1631 22.5221 9.10561 22.5455C8.59936 22.5572 8.18311 22.604 8.18311 22.6391C8.18311 22.756 9.55562 23.4108 10.3544 23.6681C12.7506 24.4282 15.5969 24.1008 17.7344 22.8028C19.2532 21.879 20.772 20.0431 21.4807 18.2657C21.8632 17.3186 22.2457 15.5879 22.2457 14.7577C22.2457 14.2198 22.2795 14.1496 22.9095 13.5065C23.2807 13.1323 23.6295 12.723 23.697 12.6061C23.8095 12.3839 23.7982 12.3839 23.2245 12.5827C22.2682 12.9335 22.1332 12.8867 22.6057 12.3605C22.9545 11.9863 23.3707 11.3081 23.3707 11.1093C23.3707 11.0743 23.202 11.1327 23.0107 11.238C22.8082 11.3549 22.3582 11.5303 22.0207 11.6355L21.4132 11.8343L20.862 11.4485C20.5582 11.238 20.1307 11.0041 19.9057 10.9339C19.332 10.7702 18.4544 10.7936 17.9369 10.9807C16.5307 11.5069 15.6419 12.8634 15.7432 14.3484Z" fill="#333333"/>
</svg>
